<svg xmlns="http://www.w3.org/2000/svg" viewBox="0 0 68.04 61.98"><defs><style>.cls-1{fill:#565656;}</style></defs><title>rentAtivo 3</title><g id="Camada_2" data-name="Camada 2"><g id="Camada_1-2" data-name="Camada 1"><path class="cls-1" d="M35.57,46.54V55h-3.1V46.54h3.1m7-7H25.47V57.71A4.29,4.29,0,0,0,29.75,62h8.55a4.29,4.29,0,0,0,4.27-4.27V39.54Z"/><path class="cls-1" d="M56,7a5,5,0,0,1,5,5V25a5,5,0,0,1-5,5H12a5,5,0,0,1-5-5V12a5,5,0,0,1,5-5H56m0-7H12A12,12,0,0,0,0,12V25A12,12,0,0,0,12,37H56A12,12,0,0,0,68,25V12A12,12,0,0,0,56,0Z"/></g></g></svg>