<svg xmlns="http://www.w3.org/2000/svg" viewBox="0 0 68.92 66.27"><defs><style>.cls-1{fill:#565656;}</style></defs><title>compraAtivo 1</title><g id="Camada_2" data-name="Camada 2"><g id="Camada_1-2" data-name="Camada 1"><path class="cls-1" d="M68.54,26.88C57.45,50.36,53.84,50.36,51.69,50.36H30.48C23.06,50.36,17.37,46,16,39.23c0-.21-4.24-20.82-5.31-26.57C10.14,9.83,8.8,8,4,8A4,4,0,0,1,4,0c8,0,13.16,4,14.51,11.2,1.06,5.7,5.25,26.24,5.29,26.45.85,4.15,4.56,4.77,6.71,4.77H50.64c2.17-2.33,7.1-11.29,10.7-18.93a4,4,0,0,1,7.19,3.4ZM27.83,53a6.63,6.63,0,1,0,6.63,6.63A6.63,6.63,0,0,0,27.83,53Zm23.86,0a6.63,6.63,0,1,0,6.63,6.63A6.63,6.63,0,0,0,51.69,53ZM38.87,31.4a1.48,1.48,0,0,0,1.83,0A98.5,98.5,0,0,0,52.14,18.26,1.48,1.48,0,0,0,50.92,16H45s-.58-11.37-1-11.9c-.55-.78-2.8-1.31-4.28-1.31S36,3.28,35.45,4.06c-.37.52-.87,11.9-.87,11.9h-6a1.48,1.48,0,0,0-1.23,2.3C31.32,24.14,38.61,31.19,38.87,31.4Z"/></g></g></svg>