<svg xmlns="http://www.w3.org/2000/svg" xmlns:xlink="http://www.w3.org/1999/xlink" viewBox="0 0 1150.06 223.26"><defs><style>.cls-1{fill:url(#Gradiente_sem_nome_13);}.cls-2{fill:url(#Gradiente_sem_nome_16);}.cls-3{fill:url(#Gradiente_sem_nome_10);}.cls-4{fill:url(#Gradiente_sem_nome_10-2);}.cls-5{fill:url(#Gradiente_sem_nome_10-3);}.cls-6{fill:url(#Gradiente_sem_nome_10-4);}</style><linearGradient id="Gradiente_sem_nome_13" x1="75.43" y1="136.21" x2="39.79" y2="63.36" gradientUnits="userSpaceOnUse"><stop offset="0" stop-color="#f83600"/><stop offset="1" stop-color="#f9d423"/></linearGradient><linearGradient id="Gradiente_sem_nome_16" x1="83.13" y1="98.34" x2="214.04" y2="-7.28" gradientUnits="userSpaceOnUse"><stop offset="0" stop-color="#88d3ce"/><stop offset="1" stop-color="#6e45e2"/></linearGradient><linearGradient id="Gradiente_sem_nome_10" x1="111.25" y1="283.62" x2="21.58" y2="138.49" gradientUnits="userSpaceOnUse"><stop offset="0" stop-color="#9be15d"/><stop offset="1" stop-color="#00e3ae"/></linearGradient><linearGradient id="Gradiente_sem_nome_10-2" x1="166.72" y1="250.48" x2="76.59" y2="104.61" xlink:href="#Gradiente_sem_nome_10"/><linearGradient id="Gradiente_sem_nome_10-3" x1="221.27" y1="202.47" x2="151.46" y2="89.48" xlink:href="#Gradiente_sem_nome_10"/><linearGradient id="Gradiente_sem_nome_10-4" x1="252.6" y1="177.13" x2="177.64" y2="55.8" xlink:href="#Gradiente_sem_nome_10"/></defs><title>iconAtivo 1</title><g id="Camada_2" data-name="Camada 2"><g id="Camada_1-2" data-name="Camada 1"><path d="M329.91,126.37H280.28L270,149.72H256.26l42.29-93.4h13.21l42.43,93.4h-14Zm-4.67-10.67L305.09,69.93,284.95,115.7Z"/><path d="M433.18,79v61.11c0,25-12.67,36.29-36.69,36.29-12.94,0-26-3.6-33.76-10.54l6.14-9.87c6.54,5.6,16.81,9.21,27.22,9.21,16.68,0,24.28-7.74,24.28-23.75v-5.6c-6.14,7.34-15.34,10.94-25.48,10.94-20.41,0-35.89-13.88-35.89-34.29s15.48-34.16,35.89-34.16c10.54,0,20.15,3.87,26.15,11.61V79ZM420.64,112.5c0-13.74-10.14-22.95-24.28-22.95s-24.42,9.21-24.42,22.95,10.14,23.08,24.42,23.08S420.64,126.11,420.64,112.5Z"/><path d="M495.62,78.34V90.75a22.56,22.56,0,0,0-2.94-.13c-13.74,0-22.28,8.41-22.28,23.88v35.22H457.6V79h12.27V90.88C474.41,82.61,483.21,78.34,495.62,78.34Z"/><path d="M504.16,114.37c0-21.08,15.61-36,36.83-36s36.69,14.94,36.69,36S562.2,150.52,541,150.52,504.16,135.45,504.16,114.37Zm60.57,0c0-15.08-10.14-24.82-23.75-24.82s-23.88,9.74-23.88,24.82,10.27,24.95,23.88,24.95S564.74,129.44,564.74,114.37Z"/><path d="M678.81,56.33v93.4H664.54L613,86.48v63.24H595.82V56.33H610.1l51.5,63.24V56.33Z"/><path d="M769,119.43H713.1c2,10.41,10.67,17.08,23.08,17.08,8,0,14.28-2.54,19.35-7.74L764.47,139c-6.4,7.6-16.41,11.61-28.69,11.61-23.88,0-39.36-15.34-39.36-36.56S712,77.67,733.25,77.67c20.81,0,36,14.54,36,36.82C769.27,115.83,769.14,117.83,769,119.43Zm-56-11.07H753.4C752.06,98.09,744.19,91,733.25,91S714.57,98,713,108.36Z"/><path d="M856,78.47v60.44c0,25.88-13.48,37.63-38.43,37.63-13.34,0-26.55-3.47-34.69-10.14l7.47-12.54c6.27,5.2,16.41,8.54,26.28,8.54,15.74,0,22.68-7.2,22.68-21.61V137c-5.87,6.4-14.28,9.47-23.88,9.47-20.41,0-36-13.88-36-34.56s15.61-34.29,36-34.29c10,0,18.81,3.2,24.68,10.27V78.47ZM839.59,112c0-12-9.07-20.15-21.62-20.15S796.23,100,796.23,112s9.07,20.41,21.75,20.41S839.59,124.1,839.59,112Z"/><path d="M872,114.1c0-21.35,16-36.42,37.89-36.42,22.15,0,38,15.08,38,36.42s-15.88,36.56-38,36.56C888,150.66,872,135.45,872,114.1Zm59.11,0c0-13.61-9.07-22.28-21.21-22.28s-21.08,8.67-21.08,22.28,9.07,22.28,21.08,22.28S931.12,127.71,931.12,114.1ZM916.57,50.46h19.61L913,68.73H898.56Z"/><path d="M958.07,114.1c0-21.35,16-36.42,38.56-36.42,13.88,0,25,5.74,30.42,16.54l-12.81,7.47a20.16,20.16,0,0,0-17.75-9.87c-12.28,0-21.61,8.54-21.61,22.28s9.34,22.28,21.61,22.28a20.16,20.16,0,0,0,17.75-9.87L1027,134c-5.47,10.67-16.54,16.68-30.42,16.68C974.08,150.66,958.07,135.45,958.07,114.1Z"/><path d="M1039.19,56.73c0-5.6,4.54-10,10.67-10s10.67,4.14,10.67,9.61c0,5.87-4.4,10.41-10.67,10.41S1039.19,62.33,1039.19,56.73Zm2.27,21.75h16.68v71.25h-16.68Z"/><path d="M1074.14,114.1c0-21.35,16-36.42,37.89-36.42,22.15,0,38,15.08,38,36.42s-15.88,36.56-38,36.56C1090.15,150.66,1074.14,135.45,1074.14,114.1Zm59.11,0c0-13.61-9.07-22.28-21.21-22.28S1091,100.49,1091,114.1s9.07,22.28,21.08,22.28S1133.25,127.71,1133.25,114.1Z"/><path class="cls-1" d="M107.46,92.84a316.37,316.37,0,0,0-69.32,20.41q-11.8,5-23.1,10.87a49,49,0,1,1,92.42-31.28Z"/><path class="cls-2" d="M221.81,93.6A323.69,323.69,0,0,0,116,91.49l-.17-.71A57.58,57.58,0,0,0,2.35,104.58a57.09,57.09,0,0,0,4.79,23l.28.65q-2.86,1.57-5.67,3.22A111.65,111.65,0,1,1,221.81,93.6Z"/><path class="cls-3" d="M98,222.45A111.75,111.75,0,0,1,4,141.19q6.78-4.1,13.8-7.85C51.05,162.64,85.18,205.67,98,222.45Z"/><path class="cls-4" d="M192.5,188.56a111.26,111.26,0,0,1-80.87,34.7,112.54,112.54,0,0,1-11.32-.57c-18.6-39.32-48.7-72-73-94.23a300.58,300.58,0,0,1,36.29-15c42.06,36.63,85.88,95.95,86.81,97.21-18.13-42.15-50.1-77.27-75.75-100.72a302.19,302.19,0,0,1,39.64-8.88C147.15,130.67,180.3,172.62,192.5,188.56Z"/><path class="cls-5" d="M217.51,147.08a111.38,111.38,0,0,1-23.7,40.09c-17.16-35.78-43.77-66-66.7-87.77A306,306,0,0,1,161,97.53q6.69,0,13.31.29h0C190.8,114.87,206.17,133,217.51,147.08Z"/><path class="cls-6" d="M223.26,111.63a111.46,111.46,0,0,1-3.57,28.09,309.18,309.18,0,0,0-31.16-41A304.14,304.14,0,0,1,223,103.87C223.17,106.43,223.26,109,223.26,111.63Z"/></g></g></svg>