<svg xmlns="http://www.w3.org/2000/svg" viewBox="0 0 68.04 68.04"><defs><style>.cls-1{fill:#565656;}</style></defs><title>exchangeAtivo 4</title><g id="Camada_2" data-name="Camada 2"><g id="Camada_1-2" data-name="Camada 1"><path class="cls-1" d="M60.54,49.58a10,10,0,1,0-12.92,0,14.12,14.12,0,0,0-7.5,12.48v4a2,2,0,0,0,2,2H66a2,2,0,0,0,2-2v-4A14.12,14.12,0,0,0,60.54,49.58ZM54.09,36a6,6,0,1,1-6,6A6,6,0,0,1,54.09,36Zm10,28H44.12v-2a10,10,0,1,1,19.93,0Z"/><path class="cls-1" d="M20.41,17.55a10,10,0,1,0-12.92,0A14.12,14.12,0,0,0,0,30v4a2,2,0,0,0,2,2H25.91a2,2,0,0,0,2-2V30A14.12,14.12,0,0,0,20.41,17.55ZM14,4a6,6,0,1,1-6,6A6,6,0,0,1,14,4Zm10,28H4V30a10,10,0,0,1,10-10.1,10,10,0,0,1,10,10.1Z"/><path class="cls-1" d="M63.85,17.07a2,2,0,0,0-1.79-1.12H60A18,18,0,0,0,42.13,0h-8a2,2,0,0,0,0,4A14,14,0,0,1,48,15.95H46.11a2,2,0,0,0-1.56,3.23l8,10.1a2,2,0,0,0,3.13,0l8-10.1A2,2,0,0,0,63.85,17.07Zm-9.77,7.75-3.86-4.89a2,2,0,0,0,1.87-2,17.9,17.9,0,0,0-6-13.38,14,14,0,0,1,10,13.38,2,2,0,0,0,1.87,2Z"/><path class="cls-1" d="M34.15,64.05A14.4,14.4,0,0,1,20.08,52h1.84a2,2,0,0,0,1.56-3.24l-8-10a2,2,0,0,0-3.11,0l-8,10A2,2,0,0,0,6,52h2.1A18,18,0,0,0,25.91,68h8.24a2,2,0,1,0,0-4ZM12,50a2,2,0,0,0-1.84-2L14,43.19,17.78,48a2,2,0,0,0-1.84,2,17.85,17.85,0,0,0,5.4,12.76q.44.43.9.83A14.09,14.09,0,0,1,12,50Z"/></g></g></svg>